<svg width="182px" height="182px" viewBox="891 923 182 182" version="1.1" xmlns="http://www.w3.org/2000/svg" xmlns:xlink="http://www.w3.org/1999/xlink">
	<!-- Generator: Sketch 42 (36781) - http://www.bohemiancoding.com/sketch -->
	<desc>Created with Sketch.</desc>
	<defs>
		<polygon id="path-1" points="32 144.09703 144 144.09703 144 31 32 31"></polygon>
	</defs>
	<g id="Data-driven" stroke="none" stroke-width="1" fill="none" fill-rule="evenodd" transform="translate(894.000000, 926.000000)">
		<path d="M45.9149253,66.3288257 C42.9735111,66.3288257 40.7108848,68.6991228 40.7108848,71.520905 C40.7108848,74.3426871 43.0866424,76.7129842 45.9149253,76.7129842 C48.7432081,76.7129842 51.1189657,74.3426871 51.1189657,71.520905 C51.1189657,68.6991228 48.7432081,66.3288257 45.9149253,66.3288257 Z M75.442198,42.851598 C72.6139152,42.851598 70.2381576,45.221895 70.2381576,48.0436772 C70.2381576,50.8654594 72.6139152,53.2357564 75.442198,53.2357564 C78.2704808,53.2357564 80.6462384,50.8654594 80.6462384,48.0436772 C80.6462384,45.221895 78.2704808,42.851598 75.442198,42.851598 Z M102.819976,67.231796 C99.8785616,67.231796 97.6159354,69.6020931 97.6159354,72.4238752 C97.6159354,75.2456574 99.9916929,77.6159545 102.819976,77.6159545 C105.648259,77.6159545 108.024016,75.2456574 108.024016,72.4238752 C108.024016,69.6020931 105.648259,67.231796 102.819976,67.231796 Z M125.446238,34.7248653 C122.504824,34.7248653 120.242198,37.0951624 120.242198,39.9169446 C120.242198,42.7387267 122.617956,45.1090238 125.446238,45.1090238 C128.274521,45.1090238 130.650279,42.7387267 130.650279,39.9169446 C130.650279,37.0951624 128.274521,34.7248653 125.446238,34.7248653 Z M45.9149253,79.8733802 C41.2765414,79.8733802 37.4300768,76.0357564 37.5432081,71.0694198 C37.5432081,66.441697 41.3896727,62.6040733 46.0280566,62.6040733 C47.6118949,62.6040733 48.9694707,63.0555584 50.2139152,63.7327861 L67.9755313,50.5268455 C67.6361374,49.6238752 67.4098747,48.6080337 67.4098747,47.5921921 C67.4098747,42.9644693 71.2563394,39.1268455 75.8947232,39.1268455 C80.5331071,39.1268455 84.3795717,42.9644693 84.3795717,47.5921921 C84.3795717,48.9466475 84.0401778,50.301103 83.3613899,51.5426871 L98.8603798,64.9743703 C100.104824,64.1842713 101.688663,63.7327861 103.272501,63.7327861 C104.403814,63.7327861 105.423127,63.9585287 106.440178,64.2971426 L119.676541,44.9961525 C118.318966,43.5288257 117.527046,41.6100139 117.527046,39.4654594 C117.527046,34.8377366 121.373511,31.0001129 126.011895,31.0001129 C130.650279,31.0001129 134.496743,34.8377366 134.496743,39.4654594 C134.496743,44.0931822 130.650279,47.9308059 126.011895,47.9308059 C124.880582,47.9308059 123.8624,47.8179347 122.844218,47.3664495 L109.607855,66.6674396 C110.96543,68.2476376 111.757349,70.1664495 111.757349,72.311004 C111.757349,76.9387267 107.910885,80.7763505 103.272501,80.7763505 C98.6352485,80.7763505 94.7876525,76.9387267 94.7876525,72.311004 C94.7876525,70.7308059 95.2413091,69.1506079 96.032097,67.9090238 L80.6462384,54.7030832 C79.2886626,55.7189248 77.5916929,56.2832812 75.7815919,56.2832812 C73.5189657,56.2832812 71.482602,55.3803109 70.0118949,54.0258554 L53.042198,66.7803109 C53.8341172,68.1347663 54.3997737,69.7149644 54.3997737,71.4080337 C54.3997737,76.0357564 50.5533091,79.8733802 45.9149253,79.8733802 Z" id="Fill-1" fill="#8CD3D7"></path>
		<circle id="Circle" stroke="#FFFFFF" stroke-width="6" cx="88" cy="88" r="88"></circle>
		<mask id="mask-2" fill="white">
			<use xlink:href="#path-1"></use>
		</mask>
		<g id="Clip-4"></g>
		<polygon id="Fill-3" fill="#8CD3D7" mask="url(#mask-2)" points="40.3717172 131.906931 53.1555556 131.906931 53.1555556 90.0316832 40.3717172 90.0316832"></polygon>
		<polygon id="Fill-5" fill="#8CD3D7" mask="url(#mask-2)" points="69.220202 131.906931 82.0040404 131.906931 82.0040404 66.3287129 69.220202 66.3287129"></polygon>
		<polygon id="Fill-6" fill="#8CD3D7" mask="url(#mask-2)" points="96.5979798 131.794059 109.382949 131.794059 109.382949 89.3544554 96.5979798 89.3544554"></polygon>
		<polygon id="Fill-7" fill="#8CD3D7" mask="url(#mask-2)" points="121.260606 131.906931 134.044444 131.906931 134.044444 59.6693069 121.260606 59.6693069"></polygon>
		<polygon id="Fill-8" fill="#8CD3D7" mask="url(#mask-2)" points="32 144.09703 144 144.09703 144 139.017822 32 139.017822"></polygon>
	</g>
</svg>
