<svg id="Layer_1" data-name="Layer 1" xmlns="http://www.w3.org/2000/svg" xmlns:xlink="http://www.w3.org/1999/xlink" viewBox="0 0 20 31.6"><defs><style>.cls-1,.cls-3,.cls-5{fill:#c3539f;}.cls-1,.cls-2{clip-rule:evenodd;}.cls-2,.cls-6,.cls-8{fill:#88226b;}.cls-3,.cls-6{fill-rule:evenodd;}.cls-4{clip-path:url(#clip-path);}.cls-7{clip-path:url(#clip-path-2);}</style><clipPath id="clip-path"><path class="cls-1" d="M18.94,15.65A2,2,0,0,1,18.41,17L4.52,30.9a2,2,0,1,1-2.93-2.72L12.51,15.65,1.61,3.46A2,2,0,1,1,4.51.7L18.39,14.27a2,2,0,0,1,.55,1.38"/></clipPath><clipPath id="clip-path-2"><path class="cls-2" d="M41.44,15.53a2,2,0,0,1-.53,1.36L27,30.77a2,2,0,1,1-2.93-2.72L35,15.52,24.11,3.34A2,2,0,1,1,27,.58L40.89,14.15a2,2,0,0,1,.55,1.38"/></clipPath></defs><title>Artboard 4</title><path class="cls-3" d="M18.94,15.65A2,2,0,0,1,18.41,17L4.52,30.9a2,2,0,1,1-2.93-2.72L12.51,15.65,1.61,3.46A2,2,0,1,1,4.51.7L18.39,14.27a2,2,0,0,1,.55,1.38"/><g class="cls-4"><rect class="cls-5" x="-3.94" y="-4.92" width="27.88" height="41.45"/></g><path class="cls-6" d="M41.44,15.53a2,2,0,0,1-.53,1.36L27,30.77a2,2,0,1,1-2.93-2.72L35,15.52,24.11,3.34A2,2,0,1,1,27,.58L40.89,14.15a2,2,0,0,1,.55,1.38"/><g class="cls-7"><rect class="cls-8" x="18.56" y="-5.04" width="27.88" height="41.45"/></g></svg>