<svg width="182px" height="182px" viewBox="375 1244 182 182" version="1.1" xmlns="http://www.w3.org/2000/svg" xmlns:xlink="http://www.w3.org/1999/xlink">
	<!-- Generator: Sketch 42 (36781) - http://www.bohemiancoding.com/sketch -->
	<desc>Created with Sketch.</desc>
	<defs>
		<polygon id="path-1" points="26 146 153 146 153 35 26 35"></polygon>
	</defs>
	<g id="Always-learning" stroke="none" stroke-width="1" fill="none" fill-rule="evenodd" transform="translate(378.000000, 1247.000000)">
		<circle id="Circle" stroke="#FFFFFF" stroke-width="5" cx="88" cy="88" r="88"></circle>
		<path d="M141.660714,93.8979592 C145.41175,93.8979592 148.464286,90.8488571 148.464286,87.1020408 C148.464286,83.9124898 146.198696,81.117102 143.073589,80.457898 C142.459,80.3287755 141.926054,79.9482041 141.60175,79.4113265 C141.277446,78.874449 141.191268,78.2265714 141.363625,77.6217347 C141.565464,76.9126939 141.660714,76.3259796 141.660714,75.7755102 C141.660714,72.0286939 138.608179,68.9795918 134.857143,68.9795918 C134.344607,68.9795918 133.795786,69.0611429 133.133571,69.2333061 C132.435071,69.4167959 131.698018,69.2582245 131.135589,68.8096939 C130.575429,68.3611633 130.260196,67.6725102 130.289679,66.9544082 C130.291946,66.8773878 130.314625,66.6508571 130.325964,66.5738367 C130.321429,62.9674694 127.268893,59.9183673 123.517857,59.9183673 C122.152607,59.9183673 120.83725,60.3215918 119.712393,61.0827347 C119.129554,61.476898 118.394768,61.581102 117.728018,61.3568367 C117.059,61.137102 116.532857,60.6183469 116.299268,59.9546122 C115.342232,57.2226531 112.775018,55.3877551 109.910714,55.3877551 C107.046411,55.3877551 104.479196,57.2226531 103.524429,59.9546122 C103.290839,60.6183469 102.764696,61.137102 102.095679,61.3568367 C101.428929,61.581102 100.694143,61.476898 100.111304,61.0827347 C98.9841786,60.3215918 97.6688214,59.9183673 96.3035714,59.9183673 C92.5525357,59.9183673 89.5,62.9674694 89.5,66.7142857 C89.5,67.9647347 88.484,68.9795918 87.2321429,68.9795918 C84.2158929,68.9795918 81.6804286,70.964 80.7914286,73.6846327 C81.4173571,73.5781633 82.0523571,73.5102041 82.6964286,73.5102041 C88.2390714,73.5102041 92.8655,77.5039388 93.8452143,82.7617143 C99.1089107,83.7403265 103.107143,88.361551 103.107143,93.8979592 L128.053571,93.8979592 C129.305429,93.8979592 130.321429,94.9128163 130.321429,96.1632653 C130.321429,99.9100816 133.373964,102.959184 137.125,102.959184 L139.392857,102.959184 L139.392857,96.1632653 C139.392857,94.9128163 140.408857,93.8979592 141.660714,93.8979592 Z M99.9865714,98.5803469 C99.8595714,98.5554286 99.7575179,98.4761429 99.6395893,98.4285714 L80.4285714,98.4285714 C74.1760893,98.4285714 69.0892857,93.3474898 69.0892857,87.1020408 C69.0892857,82.8795102 71.4864107,79.0987143 75.0741607,77.1596122 C73.9130179,74.9441429 71.6179464,73.5102041 69.0892857,73.5102041 C66.2249821,73.5102041 63.6577679,75.345102 62.703,78.0770612 C62.4694107,78.7407959 61.9432679,79.259551 61.27425,79.4792857 C60.6075,79.7058163 59.8749821,79.5993469 59.289875,79.2051837 C58.16275,78.4440408 56.8473929,78.0408163 55.4821429,78.0408163 C51.7311071,78.0408163 48.6785714,81.0899184 48.6785714,84.8367347 C48.6876429,84.8254082 48.7035179,84.9409388 48.7080536,85.0791224 C48.7375357,85.7972245 48.4223036,86.4858776 47.8621429,86.9344082 C47.2997143,87.3829388 46.5603929,87.5437755 45.8641607,87.3580204 C45.2042143,87.1835918 44.6553929,87.1020408 44.1428571,87.1020408 C40.3918214,87.1020408 37.3392857,90.1511429 37.3392857,93.8979592 C37.3392857,94.4484286 37.4345357,95.0351429 37.6341071,95.7441837 C37.8064643,96.3490204 37.7202857,96.996898 37.3959821,97.5337755 C37.0716786,98.0706531 36.5387321,98.4489592 35.9241429,98.5803469 C32.8013036,99.239551 30.5357143,102.034939 30.5357143,105.22449 C30.5357143,108.971306 33.58825,112.020408 37.3392857,112.020408 C38.5911429,112.020408 39.6071429,113.035265 39.6071429,114.285714 L39.6071429,121.081633 L41.875,121.081633 C45.6260357,121.081633 48.6785714,118.032531 48.6785714,114.285714 C48.6785714,113.035265 49.6945714,112.020408 50.9464286,112.020408 L98.5714286,112.020408 C102.322464,112.020408 105.375,108.971306 105.375,105.22449 C105.375,102.034939 103.109411,99.239551 99.9865714,98.5803469 Z M80.4285714,93.8979592 L98.5714286,93.8979592 C98.5714286,90.1511429 95.5188929,87.1020408 91.7678571,87.1020408 C90.516,87.1020408 89.5,86.0871837 89.5,84.8367347 C89.5,81.0899184 86.4474643,78.0408163 82.6964286,78.0408163 C82.03875,78.0408163 81.3946786,78.1382245 80.7755536,78.3217143 C80.7619464,78.7022857 80.6871071,79.0783265 80.4852679,79.4113265 C80.1609643,79.9482041 79.6280179,80.3265102 79.0134286,80.457898 C75.8905893,81.117102 73.625,83.9124898 73.625,87.1020408 C73.625,90.8488571 76.6775357,93.8979592 80.4285714,93.8979592 Z M146.151071,76.706551 C150.224143,78.4689592 153,82.5442449 153,87.1020408 C153,92.5704898 149.097018,97.1486735 143.928571,98.1997755 L143.928571,105.22449 C143.928571,106.474939 142.912571,107.489796 141.660714,107.489796 L137.125,107.489796 C131.650393,107.489796 127.067054,103.591204 126.014768,98.4285714 L107.588429,98.4285714 C109.037589,100.34502 109.910714,102.700939 109.910714,105.22449 C109.910714,111.469939 104.823911,116.55102 98.5714286,116.55102 L66.8214286,116.55102 L66.8214286,134.673469 C66.8214286,138.420286 69.8739643,141.469388 73.625,141.469388 L112.178571,141.469388 C115.929607,141.469388 118.982143,138.420286 118.982143,134.673469 L118.982143,110.692939 L116.049804,113.62198 L112.843054,110.418837 L119.646625,103.622918 C120.533357,102.737184 121.966643,102.737184 122.853375,103.622918 L129.656946,110.418837 L126.450196,113.62198 L123.517857,110.692939 L123.517857,134.673469 C123.517857,140.918918 118.431054,146 112.178571,146 L73.625,146 C67.3725179,146 62.2857143,140.918918 62.2857143,134.673469 L62.2857143,116.55102 L52.9852321,116.55102 C51.9329464,121.713653 47.351875,125.612245 41.875,125.612245 L37.3392857,125.612245 C36.0874286,125.612245 35.0714286,124.597388 35.0714286,123.346939 L35.0714286,116.322224 C29.9029821,115.271122 26,110.695204 26,105.22449 C26,100.666694 28.7758571,96.5914082 32.8489286,94.829 C32.8171786,94.5141224 32.8035714,94.2060408 32.8035714,93.8979592 C32.8035714,87.5777551 38.0627321,82.4513673 44.3696429,82.5736939 C45.4219286,77.4087959 50.0052679,73.5102041 55.4821429,73.5102041 C56.8836786,73.5102041 58.2557321,73.7661837 59.5416071,74.2600204 C61.5872143,71.0251633 65.1704286,68.9795918 69.0892857,68.9795918 C71.9195714,68.9795918 74.5638929,70.0578776 76.5913571,71.8678571 C77.9566071,68.1708776 81.197375,65.3754898 85.1547857,64.6392653 C85.9961607,60.1199796 89.5385536,56.5521224 94.0357143,55.6346735 L94.0357143,46.3265306 C94.0357143,42.5797143 90.9831786,39.5306122 87.2321429,39.5306122 L44.1428571,39.5306122 C40.3918214,39.5306122 37.3392857,42.5797143 37.3392857,46.3265306 L37.3392857,72.5723673 L40.271625,69.6433265 L43.478375,72.8464694 L36.6748036,79.6423878 C36.2325714,80.0841224 35.652,80.3061224 35.0714286,80.3061224 C34.4908571,80.3061224 33.9102857,80.0841224 33.4680536,79.6423878 L26.6644821,72.8464694 L29.8712321,69.6433265 L32.8035714,72.5723673 L32.8035714,46.3265306 C32.8035714,40.0810816 37.890375,35 44.1428571,35 L87.2321429,35 C93.484625,35 98.5714286,40.0810816 98.5714286,46.3265306 L98.5714286,55.6324082 C99.1814821,55.757 99.7824643,55.9155714 100.363036,56.1375714 C102.408643,52.9027143 105.991857,50.8571429 109.910714,50.8571429 C113.829571,50.8571429 117.412786,52.9027143 119.458393,56.1375714 C120.744268,55.6437347 122.116321,55.3877551 123.517857,55.3877551 C128.994732,55.3877551 133.578071,59.2863469 134.630357,64.4512449 C140.993964,64.3447755 146.196429,69.4553061 146.196429,75.7755102 C146.196429,76.0835918 146.182821,76.3916735 146.151071,76.706551 Z" id="Fill-1" fill="#8CD3D7"></path>
		<mask id="mask-2" fill="white">
			<use xlink:href="#path-1"></use>
		</mask>
		<g id="Clip-4"></g>
		<polygon id="Fill-3" fill="#8CD3D7" mask="url(#mask-2)" points="121.25 41.7959184 125.785714 41.7959184 125.785714 37.2653061 121.25 37.2653061"></polygon>
		<polygon id="Fill-5" fill="#8CD3D7" mask="url(#mask-2)" points="130.321429 41.7959184 134.857143 41.7959184 134.857143 37.2653061 130.321429 37.2653061"></polygon>
		<polygon id="Fill-6" fill="#8CD3D7" mask="url(#mask-2)" points="139.392857 41.7959184 143.928571 41.7959184 143.928571 37.2653061 139.392857 37.2653061"></polygon>
		<polygon id="Fill-7" fill="#8CD3D7" mask="url(#mask-2)" points="35.0714286 146 39.6071429 146 39.6071429 141.469388 35.0714286 141.469388"></polygon>
		<polygon id="Fill-8" fill="#8CD3D7" mask="url(#mask-2)" points="44.1428571 146 48.6785714 146 48.6785714 141.469388 44.1428571 141.469388"></polygon>
		<polygon id="Fill-9" fill="#8CD3D7" mask="url(#mask-2)" points="53.2142857 146 57.75 146 57.75 141.469388 53.2142857 141.469388"></polygon>
	</g>
</svg>
