<svg width="182px" height="182px" viewBox="375 604 182 182" version="1.1" xmlns="http://www.w3.org/2000/svg" xmlns:xlink="http://www.w3.org/1999/xlink">
	<!-- Generator: Sketch 42 (36781) - http://www.bohemiancoding.com/sketch -->
	<desc>Created with Sketch.</desc>
	<defs>
		<polygon id="path-1" points="79.3060364 83.037037 0 83.037037 0 0.435871605 79.3060364 0.435871605 79.3060364 83.037037"></polygon>
	</defs>
	<g id="Security-lock" stroke="none" stroke-width="1" fill="none" fill-rule="evenodd" transform="translate(378.000000, 607.000000)">
		<circle id="Circle" stroke="#FFFFFF" stroke-width="6" cx="88" cy="88" r="88"></circle>
		<path d="M69.6949818,67.1497506 L69.6949818,56.5792815 C69.6949818,48.3192815 76.4048,41.5991086 84.6520727,41.5991086 C92.9008,41.5991086 99.6091636,48.3192815 99.6091636,56.5792815 L99.6091636,67.0550593 C103.430255,69.2897753 107.4608,71.1675778 111.191709,72.6884667 L111.191709,56.5792815 C111.191709,41.9239728 99.2848,30.0001457 84.6520727,30.0001457 C70.0193455,30.0001457 58.1138909,41.9239728 58.1138909,56.5792815 L58.1138909,72.7569358 C61.8389818,71.2433309 65.8680727,69.3742691 69.6949818,67.1497506" id="Fill-1" fill="#8CD3D7"></path>
		<g id="Group-5" transform="translate(45.000000, 63.769269)">
			<mask id="mask-2" fill="white">
				<use xlink:href="#path-1"></use>
			</mask>
			<g id="Clip-4"></g>
			<path d="M46.6282182,57.2434025 C46.6718545,57.3934519 46.6936727,57.552242 46.6936727,57.7168593 C46.6936727,58.6754272 45.9169455,59.4562667 44.9584,59.4562667 L44.9482182,59.4562667 L34.3620364,59.4562667 C33.8514909,59.4562667 33.3642182,59.2275506 33.0369455,58.8400444 C32.7067636,58.4481679 32.5642182,57.9324642 32.6500364,57.4255012 L34.4842182,41.9325383 C31.7889455,40.2120691 29.9940364,37.200884 29.9940364,33.7730568 C29.9940364,28.4368346 34.3285818,24.0970568 39.6536727,24.0970568 C44.9816727,24.0970568 49.3147636,28.4368346 49.3147636,33.7730568 C49.3147636,37.200884 47.5213091,40.2120691 44.8274909,41.9325383 L46.6282182,57.2434025 Z M39.7293091,0.435871605 C26.1380364,14.1355259 -0.000145454545,20.4070074 -0.000145454545,20.4070074 C0.824581818,30.2738469 2.28930909,40.0693037 4.21658182,49.812316 C5.35258182,55.5491556 7.43694545,60.9261679 11.3104,65.5980938 C18.2718545,74.0037728 27.5722182,79.3079457 38.1569455,82.8304642 C39.1853091,83.1713531 40.5874909,83.060637 41.6478545,82.7168346 C47.9940364,80.6685877 53.9038545,77.8059951 59.2536727,74.0081432 C65.0020364,69.9291309 69.6507636,65.0212049 72.3664,58.6885383 C75.9431273,50.3367605 77.0718545,41.5202667 78.0609455,32.6862914 C78.5220364,28.5839704 78.9278545,24.477279 79.3060364,20.3691309 C77.1620364,19.8344889 52.7184,13.5280444 39.7293091,0.435871605 L39.7293091,0.435871605 Z" id="Fill-3" fill="#8CD3D7" mask="url(#mask-2)"></path>
		</g>
	</g>
</svg>
