<svg width="182px" height="182px" viewBox="890 308 182 182" version="1.1" xmlns="http://www.w3.org/2000/svg" xmlns:xlink="http://www.w3.org/1999/xlink">
	<!-- Generator: Sketch 42 (36781) - http://www.bohemiancoding.com/sketch -->
	<desc>Created with Sketch.</desc>
	<defs></defs>
	<g id="Easy-to-use" stroke="none" stroke-width="1" fill="none" fill-rule="evenodd" transform="translate(893.000000, 311.000000)">
		<circle id="Circle" stroke="#FFFFFF" stroke-width="6" cx="88" cy="88" r="88"></circle>
		<path d="M148.999921,89.0870758 C149.053651,55.1215929 121.562606,27.5437534 87.597123,27.4900236 C53.6316401,27.4362938 26.0538007,54.9273391 26.0000709,88.892822 C25.9752725,105.239072 32.4579763,120.9261 44.0202103,132.4842 C46.0412764,134.505267 49.316726,134.505267 51.3357256,132.4842 C53.3567917,130.463134 53.3567917,127.187685 51.3357256,125.168685 C31.3296511,105.195675 31.3007197,72.7842226 51.2737297,52.7781481 C71.2467397,32.7720737 103.658192,32.7431422 123.664267,52.7161522 C143.672408,72.6891622 143.701339,105.098548 123.728329,125.106689 C123.705597,125.125288 123.684932,125.14802 123.664267,125.168685 C121.645267,127.187685 121.645267,130.463134 123.664267,132.4842 C125.685333,134.505267 128.960782,134.505267 130.979782,132.4842 C142.508951,120.986029 148.991655,105.37133 148.999921,89.0870758 M94.5117316,89.0312795 C94.5117316,85.1172721 91.3396084,81.9430824 87.4235345,81.9430824 C83.5095272,81.9430824 80.3353375,85.1172721 80.3353375,89.0312795 C80.3353375,92.9452868 83.5095272,96.1194765 87.4235345,96.1194765 C91.3354753,96.1070773 94.5013989,92.9411537 94.5117316,89.0312795 M116.086302,67.6633619 L102.839846,80.9098176 C107.334549,89.4425189 104.059099,100.002486 95.5243311,104.497188 C86.9916298,108.989824 76.4316628,105.714374 71.9369606,97.1816728 C67.4443249,88.6489715 70.7197746,78.0869379 79.2545424,73.5943023 C84.3464717,70.9140132 90.4324018,70.9140132 95.5243311,73.5943023 L108.770787,60.3478466 C110.791853,58.328847 114.067303,58.328847 116.086302,60.3478466 C118.107368,62.3689127 118.107368,65.6422958 116.086302,67.6633619" id="Easy,-fast" fill="#8CD3D7"></path>
	</g>
</svg>
